<svg xmlns="http://www.w3.org/2000/svg" width="640" height="228" viewBox="0 0 640 228"><path d="M0 0 C2.5 2.19 4.84 4.45 7.15 6.83 C7.79 7.43 8.42 8.03 9.07 8.65 C17.66 17.41 21.9 30.02 24.15 41.83 C24.28 42.45 24.41 43.07 24.55 43.7 C25.95 51.51 25.7 60.07 24.15 67.83 C23.15 68.83 23.15 68.83 21.48 68.95 C20.39 68.95 20.39 68.95 19.27 68.95 C18.02 68.95 18.02 68.95 16.75 68.95 C15.82 68.95 14.9 68.95 13.95 68.94 C12.5 68.94 12.5 68.94 11.02 68.94 C7.82 68.94 4.61 68.93 1.4 68.93 C-0.82 68.92 -3.04 68.92 -5.26 68.92 C-10.51 68.92 -15.76 68.91 -21.01 68.9 C-26.99 68.89 -32.97 68.88 -38.95 68.88 C-51.25 68.87 -63.55 68.85 -75.85 68.83 C-75.41 70.73 -74.97 72.63 -74.52 74.52 C-74.27 75.58 -74.02 76.64 -73.77 77.73 C-71.67 84.82 -67.26 90.46 -61.16 94.61 C-51.98 99.45 -41.4 100.04 -31.5 97.14 C-25.73 94.65 -20.96 89.75 -17.99 84.23 C-16.85 82.83 -16.85 82.83 -15.16 82.47 C-14.49 82.47 -13.82 82.48 -13.13 82.49 C-12.37 82.49 -11.61 82.49 -10.83 82.49 C-9.6 82.51 -9.6 82.51 -8.34 82.54 C-7.5 82.54 -6.66 82.54 -5.79 82.55 C-3.1 82.56 -0.41 82.6 2.28 82.64 C4.1 82.66 5.92 82.67 7.74 82.68 C12.21 82.71 16.68 82.77 21.15 82.83 C20.85 84.1 20.54 85.38 20.23 86.65 C20.06 87.36 19.88 88.07 19.71 88.8 C17.2 97.99 10.73 105.24 4.15 111.83 C3.51 112.48 2.88 113.13 2.22 113.8 C-12.12 127.39 -30.75 129.33 -49.51 129.1 C-66.7 128.59 -82.98 121.12 -94.93 108.66 C-110.3 90.67 -112.96 69.72 -111.85 46.83 C-110.36 30.91 -103.83 15.64 -91.85 4.83 C-91.34 4.31 -90.84 3.79 -90.32 3.26 C-67.49 -18.98 -24.7 -19.67 0 0 Z M-69.85 27.83 C-73.6 33.58 -74.86 37.91 -75.85 44.83 C-54.73 44.83 -33.61 44.83 -11.85 44.83 C-12.86 35.73 -14.24 30.35 -20.74 23.97 C-35.71 12.04 -57.23 12.78 -69.85 27.83 Z " fill="#000000" transform="translate(412.84765625,93.171875)"/><path d="M0 0 C13.86 -0.1 27.72 -0.21 42 -0.31 C46.34 -0.36 50.69 -0.4 55.16 -0.45 C60.55 -0.47 60.55 -0.47 63.09 -0.48 C64.83 -0.48 66.56 -0.5 68.3 -0.53 C87.1 -0.79 101.81 2.3 115.81 15.44 C128.86 29.37 129.74 46.56 129.49 64.69 C129.48 66.73 129.47 68.77 129.47 70.81 C129.45 76.12 129.4 81.43 129.34 86.75 C129.29 92.19 129.27 97.63 129.24 103.08 C129.19 113.72 129.1 124.36 129 135 C117.78 135 106.56 135 95 135 C94.95 129.56 94.9 124.12 94.85 118.51 C94.82 115.04 94.78 111.58 94.74 108.12 C94.68 102.63 94.62 97.14 94.58 91.65 C94.54 87.22 94.49 82.8 94.44 78.37 C94.42 76.68 94.41 75 94.4 73.32 C94.51 53.97 94.51 53.97 85.75 37.25 C78.92 30.97 70.57 29.54 61.65 29.72 C54.35 30.1 47.8 33.21 42.47 38.16 C36.62 45.48 35.87 54.93 35.79 63.93 C35.78 64.7 35.77 65.48 35.76 66.27 C35.73 68.8 35.71 71.33 35.68 73.87 C35.66 75.63 35.64 77.39 35.62 79.16 C35.57 83.78 35.52 88.41 35.47 93.03 C35.41 98.59 35.34 104.15 35.28 109.71 C35.18 118.14 35.09 126.57 35 135 C23.45 135 11.9 135 0 135 C0 90.45 0 45.9 0 0 Z " fill="#000000" transform="translate(163,83)"/><path d="M0 0 C11.22 0 22.44 0 34 0 C34 2.49 34.01 4.98 34.01 7.55 C34.03 15.81 34.07 24.08 34.13 32.34 C34.17 37.34 34.19 42.35 34.2 47.36 C34.2 52.19 34.23 57.03 34.27 61.87 C34.29 63.71 34.29 65.55 34.29 67.39 C34.19 82.99 34.19 82.99 41.99 96.12 C48.11 102.02 54.36 104.58 62.81 104.5 C63.51 104.49 64.21 104.49 64.93 104.48 C72.85 104.21 78.9 101.56 84.38 95.75 C91.78 85.56 91.6 76.15 91.61 63.96 C91.62 62.12 91.64 60.27 91.66 58.42 C91.7 53.58 91.72 48.74 91.74 43.91 C91.76 38.96 91.8 34.01 91.84 29.06 C91.91 19.38 91.96 9.69 92 0 C103.22 0 114.44 0 126 0 C126 44.55 126 89.1 126 135 C112.55 135.06 99.11 135.12 85.25 135.19 C81.03 135.21 76.8 135.24 72.45 135.27 C67.24 135.28 67.24 135.28 64.78 135.29 C63.1 135.29 61.41 135.3 59.72 135.32 C40.92 135.48 27.49 132.7 13.26 119.43 C9.76 115.66 7.3 111.58 5 107 C4.68 106.37 4.37 105.74 4.04 105.09 C0.67 97.79 -0.3 90.63 -0.23 82.65 C-0.23 81.75 -0.23 80.85 -0.23 79.92 C-0.23 76.98 -0.21 74.04 -0.2 71.09 C-0.19 69.04 -0.19 66.99 -0.19 64.94 C-0.18 59.56 -0.16 54.18 -0.14 48.8 C-0.12 43.31 -0.11 37.81 -0.1 32.31 C-0.08 21.54 -0.04 10.77 0 0 Z " fill="#FF600B" transform="translate(25,83)"/><path d="M0 0 C5.41 -0.27 10.81 -0.47 16.22 -0.6 C18.06 -0.66 19.9 -0.73 21.73 -0.83 C36.56 -1.58 36.56 -1.58 40.6 1.03 C43.55 3.9 45.24 7.29 47 11 C48.08 12.72 49.19 14.43 50.31 16.12 C51.19 17.51 52.06 18.9 52.93 20.29 C55.21 23.93 57.51 27.56 59.81 31.19 C60.29 31.96 60.77 32.72 61.27 33.51 C61.72 34.22 62.18 34.94 62.64 35.67 C63.05 36.31 63.46 36.95 63.87 37.61 C64.25 38.07 64.62 38.53 65 39 C65.66 39 66.32 39 67 39 C67.34 38.39 67.68 37.77 68.03 37.14 C68.52 36.28 69 35.42 69.49 34.53 C70.03 33.57 70.56 32.62 71.11 31.63 C72.29 29.52 73.5 27.43 74.73 25.35 C77.88 19.99 80.72 14.88 82.35 8.83 C84.22 5.15 86.63 2.39 90 0 C92.97 -0.93 95.76 -0.99 98.85 -0.97 C100.09 -1 100.09 -1 101.35 -1.03 C109.91 -1.17 118.46 -0.67 127 0 C124.5 5.26 121.75 10.14 118.45 14.95 C117.57 16.26 116.68 17.57 115.79 18.88 C115.33 19.56 114.87 20.23 114.4 20.93 C112.06 24.39 109.74 27.88 107.42 31.37 C106.48 32.78 105.54 34.2 104.59 35.61 C104.13 36.31 103.66 37.01 103.18 37.74 C98.86 44.21 98.86 44.21 97.44 46.34 C96.52 47.72 95.61 49.09 94.7 50.47 C92.83 53.29 90.94 56.08 88.96 58.83 C88.4 59.61 87.84 60.39 87.27 61.2 C86.79 61.83 86.32 62.46 85.84 63.11 C84.66 65.77 85.15 67.27 86 70 C86.96 71.96 86.96 71.96 88.22 73.79 C88.68 74.48 89.14 75.18 89.61 75.9 C90.33 76.97 90.33 76.97 91.06 78.06 C91.52 78.75 91.97 79.44 92.44 80.15 C93.95 82.44 95.47 84.72 97 87 C102.86 95.76 108.68 104.55 114.47 113.36 C115.42 114.8 116.37 116.24 117.32 117.69 C118.71 119.8 120.1 121.92 121.49 124.03 C121.92 124.67 122.34 125.31 122.78 125.98 C124.7 128.91 126.53 131.8 128 135 C122.57 135.25 117.15 135.43 111.72 135.55 C109.88 135.6 108.03 135.67 106.19 135.75 C90.96 136.45 90.96 136.45 86.44 133.1 C84.6 130.49 83.32 127.9 82 125 C80.85 123.23 79.67 121.48 78.46 119.75 C77.29 117.98 76.11 116.21 74.94 114.44 C74.35 113.56 73.77 112.68 73.16 111.77 C72.01 110.03 70.85 108.29 69.69 106.55 C67.13 102.7 64.57 98.85 62 95 C57.66 101.31 53.75 107.77 50 114.44 C48.5 117.09 47.01 119.74 45.45 122.35 C43.93 124.97 43.93 124.97 42.95 127.87 C41.63 131.04 40.67 132.8 38 135 C31.92 136.67 25.35 135.93 19.12 135.62 C17.37 135.57 15.61 135.53 13.86 135.49 C9.57 135.38 5.29 135.21 1 135 C2.36 131.31 4.04 128.16 6.17 124.85 C6.48 124.37 6.79 123.88 7.11 123.38 C8.13 121.79 9.16 120.21 10.19 118.62 C10.91 117.51 11.62 116.4 12.34 115.28 C16.55 108.75 20.79 102.24 25.03 95.73 C26.29 93.8 27.55 91.87 28.81 89.93 C31.5 85.8 34.2 81.68 37.01 77.63 C37.45 76.98 37.88 76.34 38.34 75.67 C39.12 74.52 39.92 73.38 40.74 72.25 C42.35 69.85 43.1 68.55 42.56 65.66 C40.34 61.88 37.97 58.24 35.5 54.62 C34.4 52.99 33.29 51.35 32.19 49.71 C31.37 48.5 31.37 48.5 30.54 47.27 C23.67 37.12 16.93 26.88 10.2 16.64 C9.32 15.3 8.43 13.95 7.55 12.61 C6.3 10.71 5.05 8.81 3.8 6.91 C3.42 6.33 3.04 5.75 2.64 5.15 C0 1.11 0 1.11 0 0 Z " fill="#000000" transform="translate(425,83)"/><path d="M0 0 C11.55 0 23.1 0 35 0 C35 8.91 35 17.82 35 27 C44.9 27 54.8 27 65 27 C65 36.57 65 46.14 65 56 C55.1 56 45.2 56 35 56 C35.09 67.94 35.09 67.94 35.21 79.88 C35.26 84.75 35.31 89.62 35.35 94.49 C35.37 98.42 35.41 102.35 35.46 106.28 C35.48 107.78 35.49 109.28 35.5 110.77 C35.51 112.87 35.54 114.98 35.57 117.08 C35.57 117.69 35.56 118.31 35.56 118.94 C35.66 123.44 36.68 126.24 39 130 C44.07 132.67 49.75 132.43 55.38 132.62 C58.55 132.75 61.73 132.87 65 133 C65 142.57 65 152.14 65 162 C60.66 162.07 56.33 162.13 51.99 162.16 C50.52 162.18 49.05 162.2 47.58 162.23 C33.19 162.48 21.17 161.3 10.03 151.22 C2.49 143.42 -0.13 133.07 -0.12 122.42 C-0.12 121.33 -0.12 120.25 -0.12 119.13 C-0.12 117.94 -0.12 116.76 -0.11 115.57 C-0.11 114.31 -0.11 113.04 -0.11 111.78 C-0.11 108.37 -0.11 104.96 -0.1 101.54 C-0.1 97.97 -0.09 94.4 -0.09 90.83 C-0.09 84.07 -0.08 77.32 -0.07 70.56 C-0.06 62.86 -0.06 55.17 -0.05 47.47 C-0.04 31.65 -0.02 15.82 0 0 Z " fill="#000000" transform="translate(556,56)"/><path d="M0 0 C11.22 0 22.44 0 34 0 C34 2.49 34.01 4.98 34.01 7.55 C34.03 15.81 34.07 24.08 34.13 32.34 C34.17 37.34 34.19 42.35 34.2 47.36 C34.2 52.19 34.23 57.03 34.27 61.87 C34.29 63.71 34.29 65.55 34.29 67.39 C34.19 81.43 34.19 81.43 40 94 C40.99 95.49 40.99 95.49 42 97 C28.8 97 15.6 97 2 97 C-0.25 91.38 -0.25 91.38 -0.24 87.91 C-0.24 87.13 -0.25 86.34 -0.25 85.54 C-0.24 84.7 -0.23 83.85 -0.23 82.99 C-0.23 82.09 -0.23 81.19 -0.23 80.27 C-0.23 77.31 -0.21 74.35 -0.2 71.39 C-0.19 69.33 -0.19 67.28 -0.19 65.22 C-0.18 59.82 -0.16 54.41 -0.14 49.01 C-0.12 43.49 -0.11 37.98 -0.1 32.46 C-0.08 21.64 -0.04 10.82 0 0 Z " fill="#FF600B" transform="translate(25,83)"/><path d="M0 0 C5.71 -0.13 11.42 -0.21 17.13 -0.27 C19.07 -0.3 21.01 -0.33 22.95 -0.38 C25.75 -0.44 28.55 -0.47 31.35 -0.49 C32.21 -0.51 33.07 -0.54 33.96 -0.57 C40.17 -0.57 43.31 1.06 48 5 C54.25 8.27 62.14 7.92 69 7 C72.68 5.76 75.74 4.08 79 2 C82.23 0.22 84.29 -0.21 88 0 C87.72 10.52 83.3 18.43 76.17 26.03 C72.77 29.11 69.17 31.12 65 33 C64.41 33.3 63.82 33.59 63.21 33.89 C53.67 38.15 41.66 39.19 31.73 36.1 C17.34 30.3 7.49 20.01 1.12 6.06 C0 3 0 3 0 0 Z " fill="#FF7805" transform="translate(27,180)"/><path d="M0 0 C11.22 0 22.44 0 34 0 C34 13.86 34 27.72 34 42 C7.93 42 -18.14 42 -45 42 C-45 41.67 -45 41.34 -45 41 C-44.02 40.83 -43.04 40.66 -42.04 40.48 C-28.25 37.98 -16.6 33.98 -8.24 21.98 C-3.99 15.18 -2.38 7.74 0 0 Z " fill="#FF3E12" transform="translate(117,176)"/><path d="M0 0 C11.22 0 22.44 0 34 0 C34.02 5.96 34.04 11.93 34.05 17.89 C34.06 19.92 34.07 21.95 34.08 23.98 C34.09 26.89 34.09 29.8 34.1 32.71 C34.1 33.63 34.11 34.54 34.11 35.48 C34.11 36.32 34.11 37.16 34.11 38.03 C34.12 38.77 34.12 39.52 34.12 40.29 C34 42 34 42 33 43 C30.55 43.09 28.13 43.12 25.68 43.1 C25.04 43.1 24.39 43.1 23.72 43.09 C21.29 43.09 18.87 43.08 16.44 43.06 C8.3 43.03 8.3 43.03 0 43 C0 28.81 0 14.62 0 0 Z " fill="#FF3E13" transform="translate(25,83)"/><path d="M0 0 C11.22 0 22.44 0 34 0 C34.02 4.97 34.04 9.93 34.05 14.9 C34.06 16.59 34.07 18.28 34.08 19.97 C34.09 22.4 34.09 24.82 34.1 27.25 C34.1 28.01 34.11 28.77 34.11 29.55 C34.11 31.37 34.06 33.18 34 35 C33 36 33 36 29.95 36.11 C28.6 36.11 27.25 36.11 25.9 36.1 C24.84 36.1 24.84 36.1 23.75 36.09 C21.48 36.09 19.21 36.08 16.94 36.06 C15.4 36.06 13.86 36.05 12.33 36.05 C8.55 36.04 4.78 36.02 1 36 C-0.53 32.93 -0.12 29.73 -0.1 26.37 C-0.1 25.7 -0.1 25.03 -0.09 24.35 C-0.09 21.86 -0.08 19.37 -0.06 16.88 C-0.04 11.31 -0.02 5.74 0 0 Z " fill="#FF7905" transform="translate(117,83)"/><path d="M0 0 C0 5.94 0 11.88 0 18 C-26.07 18 -52.14 18 -79 18 C-79 17.67 -79 17.34 -79 17 C-78.02 16.83 -77.04 16.66 -76.04 16.48 C-64.27 14.35 -54.09 11.29 -45.48 2.44 C-41.63 0.21 -37.84 0.52 -33.46 0.49 C-32.53 0.47 -31.61 0.45 -30.66 0.43 C-27.71 0.38 -24.76 0.35 -21.81 0.31 C-19.82 0.28 -17.82 0.24 -15.82 0.21 C-3.76 0 -3.76 0 0 0 Z " fill="#FF2D16" transform="translate(151,200)"/><path d="M0 0 C4.68 -0.02 9.36 -0.04 14.04 -0.05 C15.64 -0.06 17.23 -0.07 18.83 -0.08 C21.11 -0.09 23.4 -0.09 25.68 -0.1 C26.4 -0.1 27.12 -0.11 27.86 -0.11 C29.57 -0.11 31.29 -0.06 33 0 C34 1 34 1 34.11 3.41 C34.11 4.45 34.1 5.49 34.1 6.57 C34.1 7.58 34.09 8.59 34.09 9.64 C34.08 10.93 34.07 12.23 34.06 13.56 C34.04 17.67 34.02 21.77 34 26 C22.78 26 11.56 26 0 26 C-0.33 28.31 -0.66 30.62 -1 33 C-1.5 31.51 -1.5 31.51 -2 30 C-3.98 30.33 -5.96 30.66 -8 31 C-6.74 27.66 -5.26 24.74 -3.44 21.69 C-1 16.94 -0.55 12.87 -0.35 7.64 C-0.31 6.91 -0.27 6.17 -0.24 5.41 C-0.15 3.61 -0.07 1.8 0 0 Z " fill="#FF4F0F" transform="translate(117,150)"/><path d="M0 0 C0 10.23 0 20.46 0 31 C-0.33 31 -0.66 31 -1 31 C-1 29.02 -1 27.04 -1 25 C-11.89 25 -22.78 25 -34 25 C-34 17.08 -34 9.16 -34 1 C-29.32 0.86 -24.64 0.71 -19.96 0.57 C-18.36 0.52 -16.77 0.48 -15.17 0.43 C-12.89 0.36 -10.6 0.29 -8.32 0.22 C-7.6 0.2 -6.88 0.18 -6.14 0.15 C-1.11 0 -1.11 0 0 0 Z " fill="#FF4F0F" transform="translate(59,125)"/><path d="M0 0 C11.22 0 22.44 0 34 0 C34 6.27 34 12.54 34 19 C22.78 19 11.56 19 0 19 C0 12.73 0 6.46 0 0 Z " fill="#FF2D17" transform="translate(25,83)"/><path d="M0 0 C0.33 0 0.66 0 1 0 C1.03 1.9 1.05 3.79 1.06 5.69 C1.07 6.74 1.09 7.8 1.1 8.89 C1.01 11.72 0.65 14.24 0 17 C-0.33 16.01 -0.66 15.02 -1 14 C-2.98 14.33 -4.96 14.66 -7 15 C-5.63 11.46 -4.09 8.07 -2.38 4.69 C-1.71 3.36 -1.71 3.36 -1.02 2.01 C-0.69 1.35 -0.35 0.68 0 0 Z " fill="#FF5F0B" transform="translate(116,166)"/><path d="M0 0 C0.66 0 1.32 0 2 0 C2 0.99 2 1.98 2 3 C1.34 3 0.68 3 0 3 C0 2.01 0 1.02 0 0 Z " fill="#E41717" transform="translate(461,0)"/></svg>